<svg data-v-fde0c5aa="" xmlns="http://www.w3.org/2000/svg" viewBox="0 0 300 300" class="iconAbove"><!----><defs data-v-fde0c5aa=""><!----></defs><rect data-v-fde0c5aa="" fill="#00242C" x="0" y="0" width="300px" height="300px" class="logo-background-square"></rect><defs data-v-fde0c5aa=""><!----></defs><g data-v-fde0c5aa="" id="ec6cf9a5-bf12-4e39-b582-d9c9169af3ad" fill="#FFFFFF" transform="matrix(3.0505692013778924,0,0,3.0505692013778924,17.803590269558526,170.02780841938593)"><path d="M5.21 12.74L5.21 12.74Q3.73 12.74 2.72 12.08L2.72 12.08L2.72 12.08Q1.71 11.41 1.21 10.28L1.21 10.28L1.21 10.28Q0.72 9.15 0.72 7.77L0.72 7.77L0.72 7.77Q0.72 6.39 1.21 5.26L1.21 5.26L1.21 5.26Q1.71 4.14 2.72 3.46L2.72 3.46L2.72 3.46Q3.73 2.79 5.20 2.79L5.20 2.79L5.20 2.79Q6.60 2.79 7.64 3.47L7.64 3.47L7.64 3.47Q8.69 4.16 9.26 5.46L9.26 5.46L8.01 5.99L8.01 5.99Q7.63 5.02 6.90 4.53L6.90 4.53L6.90 4.53Q6.17 4.04 5.18 4.04L5.18 4.04L5.18 4.04Q4.14 4.04 3.45 4.54L3.45 4.54L3.45 4.54Q2.75 5.03 2.42 5.86L2.42 5.86L2.42 5.86Q2.09 6.69 2.09 7.70L2.09 7.70L2.09 7.70Q2.09 8.77 2.42 9.62L2.42 9.62L2.42 9.62Q2.75 10.47 3.45 10.98L3.45 10.98L3.45 10.98Q4.15 11.48 5.21 11.48L5.21 11.48L5.21 11.48Q5.97 11.48 6.61 11.14L6.61 11.14L6.61 11.14Q7.25 10.81 7.65 10.17L7.65 10.17L7.65 10.17Q8.05 9.54 8.10 8.67L8.10 8.67L5.89 8.67L5.89 7.56L9.43 7.56L9.43 12.61L8.31 12.61L8.23 11.03L8.23 11.03Q8.00 11.52 7.56 11.90L7.56 11.90L7.56 11.90Q7.13 12.29 6.53 12.52L6.53 12.52L6.53 12.52Q5.93 12.74 5.21 12.74L5.21 12.74ZM11.48 12.61L11.48 5.78L12.78 5.78L12.78 6.96L12.78 6.96Q13.02 6.34 13.55 5.99L13.55 5.99L13.55 5.99Q14.08 5.63 14.70 5.63L14.70 5.63L14.70 5.63Q15.05 5.63 15.35 5.74L15.35 5.74L15.35 5.74Q15.65 5.85 15.87 6.05L15.87 6.05L15.29 7.16L15.29 7.16Q14.96 6.91 14.50 6.91L14.50 6.91L14.50 6.91Q14 6.91 13.61 7.20L13.61 7.20L13.61 7.20Q13.21 7.49 12.99 8.05L12.99 8.05L12.99 8.05Q12.76 8.62 12.76 9.44L12.76 9.44L12.76 12.61L11.48 12.61ZM19.73 12.74L19.73 12.74Q18.74 12.74 17.98 12.26L17.98 12.26L17.98 12.26Q17.22 11.78 16.80 10.96L16.80 10.96L16.80 10.96Q16.37 10.14 16.37 9.17L16.37 9.17L16.37 9.17Q16.37 8.20 16.79 7.39L16.79 7.39L16.79 7.39Q17.21 6.58 17.98 6.11L17.98 6.11L17.98 6.11Q18.74 5.63 19.73 5.63L19.73 5.63L19.73 5.63Q20.71 5.63 21.48 6.11L21.48 6.11L21.48 6.11Q22.24 6.58 22.67 7.40L22.67 7.40L22.67 7.40Q23.10 8.21 23.10 9.17L23.10 9.17L23.10 9.17Q23.10 10.14 22.67 10.96L22.67 10.96L22.67 10.96Q22.24 11.78 21.48 12.26L21.48 12.26L21.48 12.26Q20.71 12.74 19.73 12.74L19.73 12.74ZM19.74 11.62L19.74 11.62Q20.41 11.62 20.85 11.28L20.85 11.28L20.85 11.28Q21.30 10.94 21.52 10.38L21.52 10.38L21.52 10.38Q21.73 9.83 21.73 9.17L21.73 9.17L21.73 9.17Q21.73 8.52 21.52 7.97L21.52 7.97L21.52 7.97Q21.30 7.42 20.85 7.09L20.85 7.09L20.85 7.09Q20.41 6.76 19.74 6.76L19.74 6.76L19.74 6.76Q19.07 6.76 18.62 7.09L18.62 7.09L18.62 7.09Q18.17 7.42 17.95 7.97L17.95 7.97L17.95 7.97Q17.74 8.52 17.74 9.17L17.74 9.17L17.74 9.17Q17.74 9.83 17.95 10.39L17.95 10.39L17.95 10.39Q18.17 10.94 18.62 11.28L18.62 11.28L18.62 11.28Q19.07 11.62 19.74 11.62L19.74 11.62ZM27.22 12.74L27.22 12.74Q26.22 12.74 25.51 12.25L25.51 12.25L25.51 12.25Q24.81 11.76 24.45 10.95L24.45 10.95L24.45 10.95Q24.10 10.14 24.10 9.20L24.10 9.20L24.10 9.20Q24.10 8.26 24.45 7.45L24.45 7.45L24.45 7.45Q24.80 6.63 25.50 6.13L25.50 6.13L25.50 6.13Q26.21 5.63 27.21 5.63L27.21 5.63L27.21 5.63Q28.18 5.63 28.90 6.13L28.90 6.13L28.90 6.13Q29.63 6.62 30.00 7.54L30.00 7.54L28.75 8.05L28.75 8.05Q28.60 7.49 28.19 7.14L28.19 7.14L28.19 7.14Q27.77 6.80 27.21 6.80L27.21 6.80L27.21 6.80Q26.60 6.80 26.20 7.15L26.20 7.15L26.20 7.15Q25.81 7.50 25.62 8.04L25.62 8.04L25.62 8.04Q25.44 8.59 25.44 9.20L25.44 9.20L25.44 9.20Q25.44 9.82 25.62 10.36L25.62 10.36L25.62 10.36Q25.80 10.90 26.20 11.24L26.20 11.24L26.20 11.24Q26.59 11.58 27.21 11.58L27.21 11.58L27.21 11.58Q27.77 11.58 28.18 11.25L28.18 11.25L28.18 11.25Q28.60 10.91 28.75 10.36L28.75 10.36L29.93 10.83L29.93 10.83Q29.61 11.73 28.90 12.24L28.90 12.24L28.90 12.24Q28.18 12.74 27.22 12.74L27.22 12.74ZM34.10 12.72L34.10 12.72Q33.04 12.72 32.30 12.24L32.30 12.24L32.30 12.24Q31.57 11.76 31.20 10.97L31.20 10.97L31.20 10.97Q30.84 10.18 30.84 9.22L30.84 9.22L30.84 9.22Q30.84 8.29 31.19 7.47L31.19 7.47L31.19 7.47Q31.54 6.66 32.25 6.16L32.25 6.16L32.25 6.16Q32.96 5.66 33.98 5.66L33.98 5.66L33.98 5.66Q35.06 5.66 35.74 6.16L35.74 6.16L35.74 6.16Q36.42 6.65 36.71 7.42L36.71 7.42L36.71 7.42Q37.00 8.19 37.00 9.04L37.00 9.04L37.00 9.04Q37.00 9.41 36.96 9.63L36.96 9.63L32.24 9.63L32.24 9.63Q32.29 10.48 32.75 11.01L32.75 11.01L32.75 11.01Q33.22 11.54 34.10 11.54L34.10 11.54L34.10 11.54Q34.65 11.54 35.09 11.37L35.09 11.37L35.09 11.37Q35.52 11.20 35.88 10.81L35.88 10.81L36.80 11.58L36.80 11.58Q36.24 12.17 35.58 12.44L35.58 12.44L35.58 12.44Q34.93 12.72 34.10 12.72L34.10 12.72ZM32.24 8.62L35.72 8.62L35.72 8.62Q35.67 7.79 35.24 7.27L35.24 7.27L35.24 7.27Q34.80 6.76 33.97 6.76L33.97 6.76L33.97 6.76Q33.18 6.76 32.75 7.28L32.75 7.28L32.75 7.28Q32.31 7.80 32.24 8.62L32.24 8.62ZM38.60 12.61L38.60 5.78L39.89 5.78L39.89 6.96L39.89 6.96Q40.13 6.34 40.67 5.99L40.67 5.99L40.67 5.99Q41.20 5.63 41.82 5.63L41.82 5.63L41.82 5.63Q42.16 5.63 42.47 5.74L42.47 5.74L42.47 5.74Q42.77 5.85 42.99 6.05L42.99 6.05L42.41 7.16L42.41 7.16Q42.08 6.91 41.62 6.91L41.62 6.91L41.62 6.91Q41.12 6.91 40.73 7.20L40.73 7.20L40.73 7.20Q40.33 7.49 40.11 8.05L40.11 8.05L40.11 8.05Q39.88 8.62 39.88 9.44L39.88 9.44L39.88 12.61L38.60 12.61ZM44.56 15.54L45.77 12.50L43.13 5.78L44.58 5.78L46.46 10.96L48.31 5.78L49.76 5.78L45.99 15.54L44.56 15.54ZM53.82 12.71L53.82 12.71Q52.98 12.71 52.23 12.41L52.23 12.41L52.23 12.41Q51.48 12.10 50.97 11.49L50.97 11.49L50.97 11.49Q50.46 10.88 50.31 10.01L50.31 10.01L51.66 9.65L51.66 9.65Q51.72 10.26 52.02 10.67L52.02 10.67L52.02 10.67Q52.33 11.08 52.80 11.28L52.80 11.28L52.80 11.28Q53.27 11.48 53.83 11.48L53.83 11.48L53.83 11.48Q54.67 11.48 55.15 11.08L55.15 11.08L55.15 11.08Q55.62 10.69 55.62 9.99L55.62 9.99L55.62 9.99Q55.62 9.50 55.35 9.15L55.35 9.15L55.35 9.15Q55.07 8.81 54.66 8.59L54.66 8.59L54.66 8.59Q54.25 8.36 53.55 8.07L53.55 8.07L53.55 8.07Q52.71 7.72 52.20 7.42L52.20 7.42L52.20 7.42Q51.68 7.12 51.32 6.62L51.32 6.62L51.32 6.62Q50.96 6.11 50.96 5.35L50.96 5.35L50.96 5.35Q50.96 4.58 51.33 4.00L51.33 4.00L51.33 4.00Q51.71 3.42 52.35 3.11L52.35 3.11L52.35 3.11Q52.99 2.80 53.76 2.80L53.76 2.80L53.76 2.80Q54.65 2.80 55.38 3.20L55.38 3.20L55.38 3.20Q56.10 3.60 56.56 4.40L56.56 4.40L55.45 5.10L55.45 5.10Q55.18 4.58 54.73 4.30L54.73 4.30L54.73 4.30Q54.27 4.03 53.72 4.03L53.72 4.03L53.72 4.03Q53.35 4.03 53.03 4.18L53.03 4.18L53.03 4.18Q52.71 4.33 52.52 4.61L52.52 4.61L52.52 4.61Q52.33 4.89 52.33 5.26L52.33 5.26L52.33 5.26Q52.33 5.68 52.58 5.98L52.58 5.98L52.58 5.98Q52.83 6.28 53.21 6.48L53.21 6.48L53.21 6.48Q53.59 6.68 54.26 6.97L54.26 6.97L54.26 6.97Q55.14 7.33 55.68 7.65L55.68 7.65L55.68 7.65Q56.23 7.96 56.61 8.51L56.61 8.51L56.61 8.51Q56.99 9.06 56.99 9.87L56.99 9.87L56.99 9.87Q56.99 10.73 56.57 11.37L56.57 11.37L56.57 11.37Q56.16 12.02 55.43 12.37L55.43 12.37L55.43 12.37Q54.71 12.71 53.82 12.71L53.82 12.71ZM61.19 12.74L61.19 12.74Q60.18 12.74 59.48 12.25L59.48 12.25L59.48 12.25Q58.78 11.76 58.42 10.95L58.42 10.95L58.42 10.95Q58.06 10.14 58.06 9.20L58.06 9.20L58.06 9.20Q58.06 8.26 58.42 7.45L58.42 7.45L58.42 7.45Q58.77 6.63 59.47 6.13L59.47 6.13L59.47 6.13Q60.18 5.63 61.17 5.63L61.17 5.63L61.17 5.63Q62.15 5.63 62.87 6.13L62.87 6.13L62.87 6.13Q63.59 6.62 63.97 7.54L63.97 7.54L62.72 8.05L62.72 8.05Q62.57 7.49 62.16 7.14L62.16 7.14L62.16 7.14Q61.74 6.80 61.17 6.80L61.17 6.80L61.17 6.80Q60.57 6.80 60.17 7.15L60.17 7.15L60.17 7.15Q59.77 7.50 59.59 8.04L59.59 8.04L59.59 8.04Q59.41 8.59 59.41 9.20L59.41 9.20L59.41 9.20Q59.41 9.82 59.59 10.36L59.59 10.36L59.59 10.36Q59.77 10.90 60.16 11.24L60.16 11.24L60.16 11.24Q60.56 11.58 61.17 11.58L61.17 11.58L61.17 11.58Q61.74 11.58 62.15 11.25L62.15 11.25L62.15 11.25Q62.57 10.91 62.72 10.36L62.72 10.36L63.90 10.83L63.90 10.83Q63.57 11.73 62.86 12.24L62.86 12.24L62.86 12.24Q62.15 12.74 61.19 12.74L61.19 12.74ZM67.09 12.74L67.09 12.74Q66.42 12.74 65.89 12.49L65.89 12.49L65.89 12.49Q65.36 12.24 65.06 11.75L65.06 11.75L65.06 11.75Q64.76 11.27 64.76 10.61L64.76 10.61L64.76 10.61Q64.76 9.58 65.51 9.10L65.51 9.10L65.51 9.10Q66.25 8.62 67.63 8.62L67.63 8.62L69.29 8.62L69.29 8.62Q69.29 7.77 68.91 7.28L68.91 7.28L68.91 7.28Q68.54 6.79 67.76 6.79L67.76 6.79L67.76 6.79Q67.16 6.79 66.73 7.07L66.73 7.07L66.73 7.07Q66.29 7.36 66.01 7.79L66.01 7.79L65.02 7.05L65.02 7.05Q65.51 6.36 66.18 6.00L66.18 6.00L66.18 6.00Q66.84 5.63 67.73 5.63L67.73 5.63L67.73 5.63Q68.61 5.63 69.24 5.98L69.24 5.98L69.24 5.98Q69.88 6.34 70.21 6.97L70.21 6.97L70.21 6.97Q70.53 7.60 70.53 8.44L70.53 8.44L70.53 12.61L69.43 12.61L69.36 11.45L69.36 11.45Q68.98 12.13 68.40 12.43L68.40 12.43L68.40 12.43Q67.81 12.74 67.09 12.74L67.09 12.74ZM67.27 11.62L67.27 11.62Q67.84 11.62 68.30 11.33L68.30 11.33L68.30 11.33Q68.76 11.03 69.02 10.56L69.02 10.56L69.02 10.56Q69.28 10.10 69.29 9.60L69.29 9.60L67.72 9.60L67.72 9.60Q66.92 9.60 66.52 9.86L66.52 9.86L66.52 9.86Q66.12 10.13 66.12 10.65L66.12 10.65L66.12 10.65Q66.12 11.12 66.43 11.37L66.43 11.37L66.43 11.37Q66.74 11.62 67.27 11.62L67.27 11.62ZM72.52 15.60L72.52 5.78L73.85 5.78L73.85 6.59L73.85 6.59Q74.19 6.13 74.71 5.88L74.71 5.88L74.71 5.88Q75.24 5.63 75.86 5.63L75.86 5.63L75.86 5.63Q76.76 5.63 77.41 6.11L77.41 6.11L77.41 6.11Q78.05 6.58 78.39 7.39L78.39 7.39L78.39 7.39Q78.72 8.20 78.72 9.19L78.72 9.19L78.72 9.19Q78.72 10.17 78.39 10.98L78.39 10.98L78.39 10.98Q78.06 11.79 77.41 12.26L77.41 12.26L77.41 12.26Q76.77 12.74 75.87 12.74L75.87 12.74L75.87 12.74Q75.26 12.74 74.73 12.50L74.73 12.50L74.73 12.50Q74.20 12.26 73.85 11.79L73.85 11.79L73.85 15.60L72.52 15.60ZM75.55 11.56L75.55 11.56Q76.16 11.56 76.57 11.24L76.57 11.24L76.57 11.24Q76.99 10.92 77.18 10.39L77.18 10.39L77.18 10.39Q77.38 9.85 77.38 9.19L77.38 9.19L77.38 9.19Q77.38 8.52 77.18 7.98L77.18 7.98L77.18 7.98Q76.99 7.44 76.57 7.12L76.57 7.12L76.57 7.12Q76.16 6.79 75.55 6.79L75.55 6.79L75.55 6.79Q74.94 6.79 74.53 7.12L74.53 7.12L74.53 7.12Q74.12 7.44 73.92 7.98L73.92 7.98L73.92 7.98Q73.73 8.52 73.73 9.19L73.73 9.19L73.73 9.19Q73.73 9.85 73.92 10.39L73.92 10.39L73.92 10.39Q74.12 10.92 74.53 11.24L74.53 11.24L74.53 11.24Q74.94 11.56 75.55 11.56L75.55 11.56ZM83.04 12.72L83.04 12.72Q81.98 12.72 81.25 12.24L81.25 12.24L81.25 12.24Q80.51 11.76 80.15 10.97L80.15 10.97L80.15 10.97Q79.78 10.18 79.78 9.22L79.78 9.22L79.78 9.22Q79.78 8.29 80.13 7.47L80.13 7.47L80.13 7.47Q80.49 6.66 81.20 6.16L81.20 6.16L81.20 6.16Q81.91 5.66 82.93 5.66L82.93 5.66L82.93 5.66Q84.01 5.66 84.68 6.16L84.68 6.16L84.68 6.16Q85.36 6.65 85.65 7.42L85.65 7.42L85.65 7.42Q85.95 8.19 85.95 9.04L85.95 9.04L85.95 9.04Q85.95 9.41 85.91 9.63L85.91 9.63L81.18 9.63L81.18 9.63Q81.23 10.48 81.70 11.01L81.70 11.01L81.70 11.01Q82.17 11.54 83.04 11.54L83.04 11.54L83.04 11.54Q83.60 11.54 84.03 11.37L84.03 11.37L84.03 11.37Q84.46 11.20 84.83 10.81L84.83 10.81L85.74 11.58L85.74 11.58Q85.18 12.17 84.53 12.44L84.53 12.44L84.53 12.44Q83.88 12.72 83.04 12.72L83.04 12.72ZM81.18 8.62L84.66 8.62L84.66 8.62Q84.62 7.79 84.18 7.27L84.18 7.27L84.18 7.27Q83.75 6.76 82.92 6.76L82.92 6.76L82.92 6.76Q82.13 6.76 81.69 7.28L81.69 7.28L81.69 7.28Q81.26 7.80 81.18 8.62L81.18 8.62Z"></path></g><defs data-v-fde0c5aa=""><!----></defs><g data-v-fde0c5aa="" id="2a1a473e-d5f6-4e2b-962c-c14dda766323" stroke="none" fill="#81E291" transform="matrix(0.8828351032463512,0,0,0.8828351032463512,108.98974760780561,81.67965120887277)"><path d="M10.7 43.3c.9 7.7 1.4 14.3 2.3 21.4.7 5.9.6 12.8 2.7 18.4s7 6 12.3 6.1c7.7.2 15.5.1 23.3.1h11c2.9 0 5.8-.2 8.1-2.2 2.5-2.1 4.4-5.6 5.1-8.8 1.3-5.7 1.8-11.7 2.7-17.5.9-5.6 1.8-11.2 2.7-16.7.3-1.7-1.2-2.8-2.8-2.1-1 .4-2 .7-3.1.9 2.9-8.3 5.1-16.9 6.5-25.6C82.4 11.5 84 1 75.1.8c-8.2-.2-12.9 9.8-15.9 15.9-1.2 2.4-2.3 4.9-3.3 7.3-1.6-1.3-3.6-2.3-4.4-3.7.3-.2.7-.5 1.1-.7.6-.4 1.1-1.3.8-2-.8-2.4-1.7-4.7-2.5-7.1-.3-1-1.1-1.3-2.1-1.2-5.8.9-11.1 3.2-16.4 5.6-.7.3-1 1.3-.8 2 .6 2.4 1.4 4.7 2.1 7.1.3 1 1.3 1.5 2.3 1.3.3-.1.7-.2 1.1-.3.2 1 .1 1.8-.4 3-.6 1.4-1 2.8-1.3 4.2-1.5-2.5-4-4.4-7.4-5.2-2.3-.5-4.7-.5-7 .1-1.3-1.4-2.8-2.6-4.5-3.2-1.8-.6-3.4 2-1.9 3.2.8.6 1.6 1.1 2.4 1.7l-1.2.9c-3.2 2.7-5.1 7.5-3.3 11.5-.3.2-2 .8-1.8 2.1zm49.5-20.2c1.4-3.2 3-6.3 4.7-9.3 1.9-3.3 4.2-7.5 8-8.8 7.2-2.5 5.8 7.4 4.5 13.5-3.9-.8-8.3-.6-11.5 2-1.2 1 .1 2.6 1.4 2.4 3.3-.5 6-1.4 9.3-.7v.2c-.3 1.5-.7 3-1 4.5-4-.6-8.3-.4-11.8 1.8-1.2.8-.5 2.7 1 2.3 3.4-.9 6.6-1.2 10-.8-.5 1.7-1 3.4-1.6 5.1-4-1.1-9.3-1.1-12.2 1.6-.7.7-.1 1.7.7 1.8 2 .1 4-.4 6-.4 1.4 0 2.8.3 4.2.6-.5 1.4-1.1 2.8-1.6 4.2-3.3-.4-6.6-1.3-9.7-1.8-2.4-.3-4.6-.3-6.8 0 1.8-6.2 3.8-12.3 6.4-18.2zM52 25.2c1 .6 1.8 1.4 2.6 2.1-.4 1.1-.8 2.2-1.2 3.2-1.1 1.2-1.9 2.2-3.8 2.3-1.9.1-3.7-.5-5.6-.4-1.8.2-3.5.8-5 1.9.2-1.6.6-3.3 1.3-5.1.6-1.4 1.1-2.8.8-4.3-.1-.7-.5-1.2-.6-1.9 0-.2-.1-.4-.1-.5.4-.1.8-.2 1.2-.4.9-.3 5.3-2.3 5.9-1.9.5.3.7 2.2 1.2 2.8.9 1.1 2.3 1.6 3.3 2.2zm-.5 11.1c-.5 1.8-1 3.7-1.5 5.6-1.8.4-3.6.9-5.5 1.4-1.4.4-2.9.7-4.3.8-.5-1.7-.9-3.3-1.1-4.9 1.5-1.8 3.1-3.2 5.7-3.2 1.8 0 3.6.6 5.4.5.4 0 .9-.1 1.3-.2zM36.4 21.2c-.4-1.2-.9-2.4-1.2-3.7 4.1-2 8.2-3.7 12.7-4.5.4 1.3.9 2.6 1.3 3.9 0 0-12.2 2.4-12.8 4.3zm-17 11.4c.1-.1.2-.1.3-.2.3.6.6 1.2.9 1.9.7 1.4 3.2.8 3-.8-.1-.8-.2-1.5-.5-2.3 1.6-.3 3.4-.2 4.9.3 5.2 1.6 6.6 7.4 5.2 12.1-2.4-.6-4.7-1.5-7-2.2-3.3-.9-6.8-1.7-10.1-1.2.1-3.1.4-5.7 3.3-7.6zM14.2 45c5.1-2.7 11.9.6 17 2.1 5.8 1.6 10.8 1 16.5-.6 2.9-.8 5.8-1.7 8.8-1.7 2.9 0 5.7.6 8.6 1.2 4 .8 7.8 1.3 11.6.4-1.4 9.1-4.7 30.1-5 31.4-.4 1.5-1.2 3.2-2.1 4.5-2.4 3.3-6.2 2.7-9.8 2.6-6.7-.2-13.5-.2-20.2-.1h-9.8c-2.6 0-7.8 1.1-9.6-1.3-1.8-2.4-1.8-6.3-2.1-9.1-.5-3.6-.9-7.1-1.4-10.7-.8-6.2-1.6-12.4-2.6-18.5 0-.2 0-.2.1-.2z"></path><path d="M20.6 38.9c.6 0 1.2-.6 1.2-1.2 0-.7-.5-1.2-1.2-1.2-.6 0-1.2.6-1.2 1.2s.5 1.2 1.2 1.2zM26.6 36.4c.6 0 1.2-.6 1.2-1.2 0-.7-.5-1.2-1.2-1.2-.6 0-1.2.6-1.2 1.2 0 .7.5 1.2 1.2 1.2zM30.1 40.1c.6 0 1.2-.6 1.2-1.2 0-.7-.5-1.2-1.2-1.2-.6 0-1.2.6-1.2 1.2s.5 1.2 1.2 1.2zM27.6 65.7c2.4-.5 4.5-2.8 6.7-4 2.5-1.4 5.2-2.4 8-2.9.9-.2 1.6-.6 2.1.2.6.9-.2 1.5-.7 2.3-.8 1.3-1.6 2.7-2.3 4-1.1 2.2-2.7 4.7-2.9 7.2-.1 1.7.3 3.3 1.8 4.2 2 1.3 4.4.2 6.4-.5 5.9-2.1 11.5-4.9 16.7-8.2 2.4-1.5.2-5.4-2.3-3.9-2.7 1.7-11.8 6.4-13.5 7.1-.8.3-3.5 1.8-4.2 1.6-1.4-.5.3-2.9.8-3.9.7-1.4 5.3-8.5 4.9-11-1.4-9-21.6.8-22.9 6.4-.1 1 .6 1.6 1.4 1.4z"></path></g><!----></svg>